# xmcd
#
# Track frame offsets:
#	150
#	9672
#	21852
#	32377
#	45072
#	56441
#	69672
#	81277
#	94702
#	108850
#	119215
#	135842
#	151622
#	165432
#	174875
#
# Disc length: 2447 seconds
#
# Revision: 0
# Processed by: cddbd v1.5.1PL0 Copyright (c) Steve Scherf et al.
# Submitted via: dBpowerAMP V4.0
#
DISCID=a3098d0f
DTITLE=Blue Moon Special - Rock n Roll Band
DYEAR=2004
DGENRE=Rock and Roll
TTITLE0=One Step Forward
TTITLE1=Mardi Grass Queen
TTITLE2=Rock n Roll Band
TTITLE3=Get It Out Of Your Mind
TTITLE4=Wire Brush Rock
TTITLE5=Round And Aroud
TTITLE6=Equator
TTITLE7=All Night Long
TTITLE8=Swingin' Down In Harlem
TTITLE9=Keep On Lovin' Me Baby
TTITLE10=Solid Ground
TTITLE11=Don't You Wanna Man Like Me
TTITLE12=Sure Got Your Lovin' On My Mind
TTITLE13=Shotgun Wedding Theme
TTITLE14=You What I'm Talking About
EXTD=
EXTT0=
EXTT1=
EXTT2=
EXTT3=
EXTT4=
EXTT5=
EXTT6=
EXTT7=
EXTT8=
EXTT9=
EXTT10=
EXTT11=
EXTT12=
EXTT13=
EXTT14=
PLAYORDER=
